<?xml version="1.0"?>
<svg xmlns="http://www.w3.org/2000/svg" xmlns:xlink="http://www.w3.org/1999/xlink" xmlns:svgjs="http://svgjs.com/svgjs" version="1.1" width="512" height="512" x="0" y="0" viewBox="0 0 512 511" style="enable-background:new 0 0 512 512" xml:space="preserve" class=""><g><path xmlns="http://www.w3.org/2000/svg" d="m385.085938 30.492188h-39.707032v-29.992188h-345.378906v321.316406h46.289062c4.0625 26.511719 27.019532 46.878906 54.644532 46.878906s50.585937-20.367187 54.644531-46.878906h202.929687c4.0625 26.511719 27.019532 46.878906 54.644532 46.878906 27.628906 0 50.585937-20.367187 54.648437-46.878906h44.199219v-172.636718zm96.898437 199.859374h-136.605469v-59.652343h136.605469zm-108.746094-169.84375 85.734375 80.175782h-113.59375v-80.175782zm-57.875-29.992187v199.835937h-285.347656v-199.835937zm-265.308593 261.285156h-20.039063v-31.433593h55.378906c-15.929687 4.675781-28.90625 16.335937-35.339843 31.433593zm50.878906 46.878907c-13.933594 0-25.269532-11.335938-25.269532-25.269532 0-13.929687 11.335938-25.265625 25.269532-25.265625s25.269531 11.335938 25.269531 25.265625c0 13.933594-11.335937 25.269532-25.269531 25.269532zm261.339844-46.878907h-210.457032c-6.4375-15.097656-19.410156-26.757812-35.34375-31.433593h281.140625c-15.929687 4.675781-28.902343 16.335937-35.339843 31.433593zm50.878906 46.878907c-13.929688 0-25.265625-11.335938-25.265625-25.269532 0-13.929687 11.335937-25.265625 25.265625-25.265625 13.933594 0 25.269531 11.335938 25.269531 25.265625 0 13.933594-11.335937 25.269532-25.269531 25.269532zm50.882812-46.878907c-6.4375-15.097656-19.410156-26.757812-35.339844-31.433593h53.289063v31.433593zm0 0" fill="#ffffff" data-original="#000000" style="" class=""/><path xmlns="http://www.w3.org/2000/svg" d="m286.792969 166.5h-19.539063c-6.5-42.320312-40.03125-75.851562-82.351562-82.347656v-26.703125h-30.015625v26.703125c-42.324219 6.5-75.855469 40.027344-82.355469 82.347656h-17.859375v30.015625h232.121094zm-116.898438-53.472656c32.601563 0 59.941407 22.910156 66.808594 53.472656h-133.617187c6.863281-30.5625 34.203124-53.472656 66.808593-53.472656zm0 0" fill="#ffffff" data-original="#000000" style="" class=""/></g></svg>
