<?xml version="1.0"?>
<svg xmlns="http://www.w3.org/2000/svg" xmlns:xlink="http://www.w3.org/1999/xlink" xmlns:svgjs="http://svgjs.com/svgjs" version="1.1" width="512" height="512" x="0" y="0" viewBox="0 0 512 512" style="enable-background:new 0 0 512 512" xml:space="preserve" class=""><g>
<g xmlns="http://www.w3.org/2000/svg">
	<g>
		<g>
			<path d="M426.667,256c-14.802,0-26.063,3.667-35.115,6.604c-0.686,0.223-1.271,0.301-1.938,0.501     c4.061-5.242,9.682-9.904,15.396-14.408c2.625-2.083,5.135-4.073,7.354-6.01c4.427-3.875,4.875-10.615,0.99-15.052     c-3.865-4.427-10.615-4.865-15.052-0.99c-1.958,1.708-4.188,3.469-6.51,5.302c-4.366,3.445-9.289,7.378-13.844,11.975     c-10.767-27.142-34.426-41.256-57.948-41.256c-5.896,0-10.667,4.771-10.667,10.667c0,17.189,4.117,31.328,10.63,42.671     c-52.612,0.018-85.297,36.792-85.297,95.996c0,64.427,44.792,160,106.667,160c12.583,0,19.729-4.385,24.938-7.583     c3.396-2.083,5-3,6.688-3.094c2.438,0.094,4.042,1.01,7.438,3.094c5.208,3.198,12.354,7.583,24.938,7.583     C467.208,512,512,416.427,512,352C512,292.781,479.302,256,426.667,256z M320,320c-9.5,0-21.333,0-21.333,32     c0,5.896-4.771,10.667-10.667,10.667s-10.667-4.771-10.667-10.667c0-53.333,32.115-53.333,42.667-53.333     c5.896,0,10.667,4.771,10.667,10.667C330.667,315.229,325.896,320,320,320z" fill="#ffffff" data-original="#000000" style="" class=""/>
			<path d="M213.333,352c0-55.323,26.656-96.979,71.292-111.427c4.188-1.354,7.104-5.135,7.365-9.521l6.167-104.708     C310.833,122.094,320,110.094,320,96c0-17.646-14.354-32-32-32H154.454l-5.173-54.344C148.76,4.177,144.167,0,138.667,0h-128     C4.771,0,0,4.771,0,10.667c0,5.896,4.771,10.667,10.667,10.667h118.302L133.033,64H53.333c-17.646,0-32,14.354-32,32     c0,14.094,9.167,26.094,21.844,30.344l20,339.865c0.688,11.906,5.719,23.104,14.156,31.542C86.521,506.938,98.74,512,111.729,512     h117.875c10.292,0,20.208-3.292,28.698-9.531c2.323-1.708,3.865-4.281,4.25-7.135c0.396-2.854-0.385-5.75-2.156-8.031     C232.25,451.292,213.333,396.917,213.333,352z" fill="#ffffff" data-original="#000000" style="" class=""/>
		</g>
	</g>
</g>
<g xmlns="http://www.w3.org/2000/svg">
</g>
<g xmlns="http://www.w3.org/2000/svg">
</g>
<g xmlns="http://www.w3.org/2000/svg">
</g>
<g xmlns="http://www.w3.org/2000/svg">
</g>
<g xmlns="http://www.w3.org/2000/svg">
</g>
<g xmlns="http://www.w3.org/2000/svg">
</g>
<g xmlns="http://www.w3.org/2000/svg">
</g>
<g xmlns="http://www.w3.org/2000/svg">
</g>
<g xmlns="http://www.w3.org/2000/svg">
</g>
<g xmlns="http://www.w3.org/2000/svg">
</g>
<g xmlns="http://www.w3.org/2000/svg">
</g>
<g xmlns="http://www.w3.org/2000/svg">
</g>
<g xmlns="http://www.w3.org/2000/svg">
</g>
<g xmlns="http://www.w3.org/2000/svg">
</g>
<g xmlns="http://www.w3.org/2000/svg">
</g>
</g></svg>
